<svg xmlns="http://www.w3.org/2000/svg" xmlns:xlink="http://www.w3.org/1999/xlink" viewBox="0 0 1304.14 738.34"><defs><style>.cls-1{fill:url(#radial-gradient);}.cls-2{fill:#fff9a0;}</style><radialGradient id="radial-gradient" cx="652.07" cy="369.17" r="522.63" gradientUnits="userSpaceOnUse"><stop offset="0" stop-color="#3f2159"/><stop offset="1" stop-color="#6935a0"/></radialGradient></defs><g id="Layer_2" data-name="Layer 2"><g id="Layer_1-2" data-name="Layer 1"><rect class="cls-1" x="7.5" y="7.5" width="1289.14" height="723.34" rx="19.5"/><path class="cls-2" d="M1277.14,15a12,12,0,0,1,12,12V711.34a12,12,0,0,1-12,12H27a12,12,0,0,1-12-12V27A12,12,0,0,1,27,15H1277.14m0-15H27A27,27,0,0,0,0,27V711.34a27,27,0,0,0,27,27H1277.14a27,27,0,0,0,27-27V27a27,27,0,0,0-27-27Z"/></g></g></svg>